<?xml version="1.0" encoding="utf-8"?>
<!-- Generator: Adobe Illustrator 26.0.3, SVG Export Plug-In . SVG Version: 6.00 Build 0)  -->
<svg version="1.1" id="Слой_1" xmlns="http://www.w3.org/2000/svg" xmlns:xlink="http://www.w3.org/1999/xlink" x="0px" y="0px"
	 viewBox="0 0 32 32" style="enable-background:new 0 0 32 32;" xml:space="preserve">
<style type="text/css">
	.st0{fill-rule:evenodd;clip-rule:evenodd;fill:#FFFFFF;}
</style>
<desc>Created with Pixso.</desc>
<path id="arrow" class="st0" d="M16,30.8C7.8,30.8,1.2,24.2,1.2,16S7.8,1.2,16,1.2S30.8,7.8,30.8,16S24.2,30.8,16,30.8z M16,32
	C7.2,32,0,24.8,0,16S7.2,0,16,0s16,7.2,16,16S24.8,32,16,32z"/>
<path id="arrow_00000125572641908383655180000011312557040590682047_" class="st0" d="M21,16.7c0.2-0.2,0.2-0.5,0-0.7
	s-0.5-0.2-0.7,0l-3.8,3.8v-8c0-0.3-0.2-0.5-0.5-0.5c-0.3,0-0.5,0.2-0.5,0.5v8L11.8,16c-0.2-0.2-0.5-0.2-0.7,0s-0.2,0.5,0,0.7
	l4.6,4.6c0.1,0.1,0.2,0.1,0.4,0.1c0.1,0,0.2,0,0.3-0.1L21,16.7z"/>
</svg>
