<?xml version="1.0" encoding="utf-8"?>
<!-- Generator: Adobe Illustrator 26.0.3, SVG Export Plug-In . SVG Version: 6.00 Build 0)  -->
<svg version="1.1" id="Слой_1" xmlns="http://www.w3.org/2000/svg" xmlns:xlink="http://www.w3.org/1999/xlink" x="0px" y="0px"
	 viewBox="0 0 166 40.2" style="enable-background:new 0 0 166 40.2;" xml:space="preserve">
<style type="text/css">
	.st0{fill:#FFFFFF;}
	.st1{fill:#0080C9;}
</style>
<desc>Created with Pixso.</desc>
<path id="path" class="st0" d="M117.3,20v-5.4h-3.3v10.7h3l3.6-5.4v5.4h3.3V14.6h-3L117.3,20z M98.4,19c0,0.4-0.2,1.1-1.2,1.1h-1.2
	v-2.8h1.3c0.3,0,1,0.3,1,1.1V19z M97.7,14.6h-5.1v10.7h3.5v-2.6h1.7c2.2,0,4.1-1.2,4.1-3.4V18C101.8,15.8,100,14.6,97.7,14.6z
	 M146.7,20.3c0,1.6-0.4,1.9-1.1,2.1c-0.3,0.1-1,0.1-1,0.1v2.8h1.4c2.9,0,4-1.7,4-5.5c0-0.9,0-1.7,0-2.5h1.9v7.9h3.5V14.6h-8.7V20.3z
	 M88,21.7c0,0.7-0.6,1.3-1.3,1.3h-0.3c-0.7,0-1.3-0.6-1.3-1.3v-3.5c0-0.7,0.6-1.3,1.3-1.3h0.3c0.7,0,1.3,0.6,1.3,1.3V21.7z
	 M87.4,14.4h-1.7c-2.2,0-4.1,1.6-4.1,4.1v3c0,2.5,1.8,4.1,4.1,4.1h1.7c2.2,0,4.1-1.6,4.1-4.1v-3C91.4,15.9,89.6,14.4,87.4,14.4z
	 M135.3,14.6h-3.8l-1.8,4.1h-0.9v-4.1h-3.5v10.7h3.5v-3.8h0.8l1.9,3.8h4l-2.9-5.4L135.3,14.6z M139.6,21.3h3.9v-2.6h-3.9v-1.3h4.2
	v-2.8h-7.7v10.7h8v-2.8h-4.6V21.3z M161.5,22.7h-1.3v-2.3h1.2c1,0,1.2,0.7,1.2,1.2C162.6,22.5,161.8,22.7,161.5,22.7z M161.9,17.7
	h-1.7v-3.1h-3.4v10.7h5.1c2.2,0,4.1-1.2,4.1-3.4v-0.8C165.9,19,164.1,17.7,161.9,17.7z M109.1,18.6h-2.9v-4h-3.5v10.7h3.5v-3.8h2.9
	v3.8h3.5V14.6h-3.5V18.6z M77,18.6h-3v-4h-3.5v10.7H74v-3.8h3v3.8h3.4V14.6H77V18.6z"/>
<path id="path_00000039117191480074830250000009983237771622090887_" class="st0" d="M41.9,0C38,0,34.3,1.1,31.2,3
	c-0.6,0.4-1.2,0.8-1.7,1.2c0.4,0.6,0.8,1.2,1.1,1.8c0.5-0.4,1.1-0.9,1.7-1.2c2.8-1.7,6-2.7,9.5-2.7c9.9,0,17.9,8,17.9,17.9
	c0,9.9-8,17.9-17.9,17.9c-5.9,0-11.1-2.9-14.4-7.3c0,0-0.6-0.9-0.7-1c-0.2-0.4-0.5-0.7-0.7-1.1c-0.4-0.8-0.8-1.5-1.1-2.4
	c-0.6-1.6-1-3.3-1.1-5.1c-0.1-0.9,0-1.8,0-2.7c0-0.4,0.1-0.8,0.2-1.3c0.1-0.4,0.2-0.8,0.2-1.2c0.2-1.7-0.1-3.4-0.8-5
	c-0.4-0.8-0.8-1.6-1.4-2.2c-0.3-0.3-0.6-0.7-1-1c-0.1-0.1-1.1-0.8-1.1-0.8c-1.5-1-3.3-1.6-5.3-1.6c-5.3,0-9.6,4.3-9.6,9.6
	c0,5.3,4.3,9.5,9.6,9.5c0.2,0,0.4,0,0.6,0L3.7,38.8h2.8l12.4-15.3c0,0,0,0,0,0c-0.1-0.7-0.2-1.5-0.2-2.3c-0.6,0.4-1.3,0.7-2.1,0.8
	c-0.5,0.1-1.1,0.2-1.7,0.2c-4.1,0-7.4-3.3-7.4-7.4s3.3-7.4,7.4-7.4c1.6,0,3.1,0.5,4.3,1.3c0,0,0.4,0.3,0.4,0.3
	c0.2,0.1,0.3,0.3,0.5,0.4c0.3,0.3,0.5,0.6,0.8,0.9c0.4,0.6,0.8,1.2,1,1.9c0.3,0.7,0.4,1.4,0.5,2.2c0,0.4,0,0.9,0,1.3
	c-0.1,0.4-0.2,0.8-0.2,1.2c-0.5,3.4-0.2,6.9,1,10.1c0.3,0.9,0.7,1.7,1.2,2.6c0.2,0.4,0.5,0.8,0.7,1.2c0.1,0.2,0.2,0.4,0.4,0.6
	c0.1,0.1,0.1,0.2,0.2,0.3c0,0.1,0.2,0.2,0.2,0.3c3.6,4.9,9.5,8.1,16.1,8.1c11,0,20-9,20-20C61.9,9,52.9,0,41.9,0z"/>
<path id="path_00000141428493380753506030000003552345306093697468_" class="st1" d="M41.9,5.3c-3,0-5.8,0.9-8.1,2.4
	c-0.6,0.4-1.2,0.9-1.8,1.4c0.3,0.8,0.5,1.6,0.6,2.3c0.5-0.6,1.2-1.1,1.8-1.6c2.1-1.5,4.6-2.4,7.4-2.4c7,0,12.6,5.6,12.6,12.6
	s-5.6,12.6-12.6,12.6c-4.5,0-8.4-2.3-10.7-5.9c0,0-0.5-0.9-0.6-1c-0.2-0.4-0.4-0.8-0.5-1.2c-0.3-0.8-0.6-1.7-0.7-2.6
	c-0.1-0.9-0.2-1.8-0.1-2.7c0-0.8,0.2-1.6,0.3-2.4c0.5-3.5-0.3-7.1-2.2-10.1c-1-1.6-2.4-3-4-4.1C21,1,18,0,14.9,0C6.7,0,0,6.7,0,14.9
	C0,21,3.8,26.4,9.2,28.6l1.4-1.7c-5-1.8-8.5-6.5-8.5-12c0-7,5.7-12.7,12.8-12.7c2.6,0,5.1,0.8,7.1,2.2c2.6,1.8,4.5,4.5,5.3,7.6
	c0.4,1.6,0.5,3.3,0.2,4.9c-0.2,1.5-0.4,2.9-0.3,4.5c0.1,1.8,0.6,3.6,1.5,5.3c0.3,0.7,0.7,1.3,1.1,1.9c2.7,3.8,7.1,6.3,12.1,6.3
	c8.1,0,14.7-6.6,14.7-14.7S50,5.3,41.9,5.3z"/>
<path id="path_00000000194005284461629920000001014270149774798518_" class="st1" d="M19.8,27.4l-9.2,11.4h2.8l7.3-9.2L19.8,27.4z"
	/>
</svg>
